<svg width="149" height="149" viewBox="0 0 149 149" fill="none" xmlns="http://www.w3.org/2000/svg">
<path d="M51.3954 148.427C52.16 147.662 52.16 146.422 51.3954 145.658C50.6308 144.893 49.3912 144.893 48.6267 145.658C47.8621 146.422 47.8621 147.662 48.6267 148.427C49.3912 149.191 50.6308 149.191 51.3954 148.427Z" fill="#FFAF00"/>
<path d="M29.6847 126.691C30.4493 125.926 30.4493 124.687 29.6848 123.922C28.9202 123.158 27.6806 123.158 26.916 123.922C26.1514 124.687 26.1514 125.926 26.916 126.691C27.6806 127.456 28.9201 127.456 29.6847 126.691Z" fill="#FFAF00"/>
<path d="M7.95701 104.988C8.72158 104.224 8.72158 102.984 7.95701 102.22C7.19244 101.455 5.95284 101.455 5.18827 102.22C4.4237 102.984 4.4237 104.224 5.18827 104.988C5.95284 105.753 7.19244 105.753 7.95701 104.988Z" fill="#FFAF00"/>
<path d="M70.8036 129.01C71.5682 128.246 71.5682 127.006 70.8036 126.242C70.0391 125.477 68.7995 125.477 68.0349 126.242C67.2703 127.006 67.2703 128.246 68.0349 129.01C68.7995 129.775 70.039 129.775 70.8036 129.01Z" fill="#FFAF00"/>
<path d="M49.083 107.295C49.8475 106.53 49.8475 105.29 49.083 104.526C48.3184 103.761 47.0788 103.761 46.3142 104.526C45.5497 105.29 45.5496 106.53 46.3142 107.295C47.0788 108.059 48.3184 108.059 49.083 107.295Z" fill="#FFAF00"/>
<path d="M27.3653 85.5761C28.1299 84.8116 28.1299 83.572 27.3653 82.8074C26.6007 82.0428 25.3611 82.0428 24.5965 82.8074C23.8319 83.5719 23.8319 84.8116 24.5965 85.5762C25.3611 86.3407 26.6007 86.3407 27.3653 85.5761Z" fill="#FFAF00"/>
<path d="M5.65459 63.8606C6.41916 63.096 6.41916 61.8564 5.65459 61.0918C4.89002 60.3272 3.6504 60.3272 2.88583 61.0918C2.12126 61.8564 2.12126 63.096 2.88583 63.8605C3.6504 64.6251 4.89002 64.6251 5.65459 63.8606Z" fill="#FFAF00"/>
<path d="M90.2048 109.611C90.9694 108.846 90.9694 107.607 90.2048 106.842C89.4403 106.078 88.2007 106.078 87.4361 106.842C86.6715 107.607 86.6715 108.846 87.4361 109.611C88.2007 110.376 89.4403 110.376 90.2048 109.611Z" fill="#FFAF00"/>
<path d="M68.4842 87.8953C69.2487 87.1308 69.2488 85.8912 68.4842 85.1266C67.7196 84.362 66.48 84.362 65.7154 85.1266C64.9508 85.8912 64.9509 87.1308 65.7154 87.8953C66.48 88.6599 67.7196 88.6599 68.4842 87.8953Z" fill="#FFAF00"/>
<path d="M46.7735 66.1898C47.5381 65.4252 47.5381 64.1856 46.7735 63.421C46.0089 62.6564 44.7693 62.6564 44.0048 63.421C43.2402 64.1856 43.2402 65.4252 44.0048 66.1897C44.7693 66.9543 46.009 66.9543 46.7735 66.1898Z" fill="#FFAF00"/>
<path d="M25.0529 44.4641C25.8174 43.6996 25.8174 42.46 25.0529 41.6954C24.2883 40.9308 23.0487 40.9308 22.2841 41.6954C21.5195 42.46 21.5195 43.6996 22.2841 44.4641C23.0487 45.2287 24.2883 45.2287 25.0529 44.4641Z" fill="#FFAF00"/>
<path d="M3.34218 22.7386C4.10675 21.974 4.10677 20.7344 3.3422 19.9698C2.57763 19.2053 1.33799 19.2053 0.573418 19.9698C-0.191152 20.7344 -0.191133 21.974 0.573437 22.7386C1.33801 23.5032 2.57761 23.5032 3.34218 22.7386Z" fill="#FFAF00"/>
<path d="M109.603 90.2046C110.368 89.44 110.368 88.2004 109.603 87.4358C108.839 86.6712 107.599 86.6713 106.834 87.4358C106.07 88.2004 106.07 89.44 106.834 90.2046C107.599 90.9692 108.838 90.9691 109.603 90.2046Z" fill="#FFAF00"/>
<path d="M87.8924 68.479C88.657 67.7144 88.6569 66.4748 87.8923 65.7103C87.1278 64.9457 85.8882 64.9457 85.1236 65.7103C84.3591 66.4748 84.359 67.7144 85.1236 68.479C85.8882 69.2436 87.1278 69.2436 87.8924 68.479Z" fill="#FFAF00"/>
<path d="M66.1817 46.7734C66.9463 46.0088 66.9463 44.7692 66.1817 44.0046C65.4172 43.2401 64.1776 43.2401 63.413 44.0046C62.6484 44.7692 62.6484 46.0088 63.413 46.7734C64.1776 47.538 65.4172 47.538 66.1817 46.7734Z" fill="#FFAF00"/>
<path d="M44.4611 25.0578C45.2257 24.2932 45.2257 23.0536 44.4611 22.2891C43.6965 21.5245 42.4569 21.5245 41.6924 22.2891C40.9278 23.0536 40.9278 24.2932 41.6924 25.0578C42.4569 25.8224 43.6965 25.8224 44.4611 25.0578Z" fill="#FFAF00"/>
<path d="M22.7504 3.34217C23.515 2.57761 23.515 1.33801 22.7504 0.573438C21.9859 -0.191131 20.7462 -0.191153 19.9817 0.573415C19.2171 1.33798 19.2171 2.57763 19.9817 3.3422C20.7462 4.10676 21.9859 4.10674 22.7504 3.34217Z" fill="#FFAF00"/>
<path d="M129.011 70.7982C129.776 70.0337 129.776 68.7941 129.011 68.0295C128.247 67.2649 127.007 67.2649 126.243 68.0295C125.478 68.7941 125.478 70.0337 126.243 70.7983C127.007 71.5628 128.247 71.5628 129.011 70.7982Z" fill="#FFAF00"/>
<path d="M107.301 49.0826C108.065 48.3181 108.065 47.0784 107.301 46.3138C106.536 45.5493 105.296 45.5493 104.532 46.3139C103.767 47.0784 103.767 48.3181 104.532 49.0826C105.296 49.8472 106.536 49.8472 107.301 49.0826Z" fill="#FFAF00"/>
<path d="M85.58 27.367C86.3446 26.6024 86.3446 25.3629 85.58 24.5983C84.8154 23.8337 83.5758 23.8337 82.8113 24.5983C82.0467 25.3628 82.0467 26.6025 82.8112 27.367C83.5758 28.1316 84.8154 28.1316 85.58 27.367Z" fill="#FFAF00"/>
<path d="M63.8693 5.63147C64.6339 4.8669 64.6339 3.6273 63.8693 2.86274C63.1048 2.09817 61.8652 2.09814 61.1006 2.86271C60.336 3.62728 60.336 4.8669 61.1006 5.63147C61.8652 6.39604 63.1048 6.39604 63.8693 5.63147Z" fill="#FFAF00"/>
<path d="M148.427 51.3889C149.191 50.6244 149.191 49.3848 148.427 48.6202C147.662 47.8556 146.422 47.8556 145.658 48.6202C144.893 49.3848 144.893 50.6244 145.658 51.3889C146.422 52.1535 147.662 52.1535 148.427 51.3889Z" fill="#FFAF00"/>
<path d="M126.716 29.6733C127.48 28.9088 127.481 27.6691 126.716 26.9046C125.951 26.14 124.712 26.14 123.947 26.9046C123.183 27.6691 123.183 28.9088 123.947 29.6734C124.712 30.4379 125.951 30.4379 126.716 29.6733Z" fill="#FFAF00"/>
<path d="M104.995 7.96771C105.76 7.20315 105.76 5.96355 104.995 5.19898C104.231 4.43441 102.991 4.43439 102.227 5.19896C101.462 5.96353 101.462 7.20315 102.226 7.96771C102.991 8.73228 104.231 8.73228 104.995 7.96771Z" fill="#FFAF00"/>
</svg>
