<svg width="210" height="41" viewBox="0 0 210 41" fill="none" xmlns="http://www.w3.org/2000/svg">
<path d="M66.8899 25.2818C65.4161 26.7417 63.6225 27.4717 61.509 27.4717C59.3956 27.4717 57.602 26.7417 56.1282 25.2818C54.6682 23.8079 53.9383 22.0074 53.9383 19.88C53.9383 17.7527 54.6682 15.9591 56.1282 14.4991C57.602 13.0253 59.3956 12.2884 61.509 12.2884C63.6225 12.2884 65.4161 13.0253 66.8899 14.4991C68.3638 15.9591 69.1007 17.7527 69.1007 19.88C69.1007 22.0074 68.3638 23.8079 66.8899 25.2818ZM58.1512 23.3213C59.055 24.2112 60.1742 24.6561 61.509 24.6561C62.8438 24.6561 63.9631 24.2112 64.8669 23.3213C65.7707 22.4175 66.2225 21.2704 66.2225 19.88C66.2225 18.4896 65.7707 17.3425 64.8669 16.4388C63.9631 15.535 62.8438 15.0831 61.509 15.0831C60.1742 15.0831 59.055 15.535 58.1512 16.4388C57.2474 17.3425 56.7955 18.4896 56.7955 19.88C56.7955 21.2704 57.2474 22.4175 58.1512 23.3213ZM81.2388 27.1797H78.1104L74.3146 22.4453V27.1797H71.6241V12.5804H74.3146V21.34L77.9018 16.7516H81.1137L76.9216 21.9031L81.2388 27.1797Z" fill="#EF358C"/>
<path d="M86.3776 27.1797L82.2898 12.5804H85.3139L88.1086 23.4047L91.1536 12.5804H93.6147L96.6805 23.4047L99.4752 12.5804H102.499L98.4116 27.1797H95.1372L92.3841 17.5441L89.652 27.1797H86.3776ZM112.311 25.8866C111.241 26.9433 109.934 27.4717 108.39 27.4717C106.847 27.4717 105.54 26.9433 104.469 25.8866C103.413 24.816 102.884 23.509 102.884 21.9656C102.884 20.4223 103.413 19.1223 104.469 18.0655C105.54 16.9949 106.847 16.4596 108.39 16.4596C109.934 16.4596 111.241 16.9949 112.311 18.0655C113.382 19.1223 113.917 20.4223 113.917 21.9656C113.917 23.509 113.382 24.816 112.311 25.8866ZM106.367 24.0304C106.909 24.5727 107.584 24.8438 108.39 24.8438C109.197 24.8438 109.871 24.5727 110.413 24.0304C110.956 23.4881 111.227 22.7999 111.227 21.9656C111.227 21.1314 110.956 20.4431 110.413 19.9009C109.871 19.3586 109.197 19.0875 108.39 19.0875C107.584 19.0875 106.909 19.3586 106.367 19.9009C105.839 20.4431 105.575 21.1314 105.575 21.9656C105.575 22.7999 105.839 23.4881 106.367 24.0304ZM127.969 16.4596C129.165 16.4596 130.117 16.8489 130.826 17.6276C131.549 18.4062 131.911 19.449 131.911 20.756V27.1797H129.22V20.9437C129.22 20.318 129.067 19.8314 128.762 19.4838C128.456 19.1362 128.025 18.9624 127.468 18.9624C126.857 18.9624 126.377 19.164 126.029 19.5672C125.696 19.9704 125.529 20.5544 125.529 21.3191V27.1797H122.838V20.9437C122.838 20.318 122.685 19.8314 122.38 19.4838C122.074 19.1362 121.643 18.9624 121.086 18.9624C120.489 18.9624 120.009 19.164 119.647 19.5672C119.3 19.9704 119.126 20.5544 119.126 21.3191V27.1797H116.436V16.7516H119.126V17.857C119.752 16.9254 120.718 16.4596 122.025 16.4596C123.304 16.4596 124.25 16.9602 124.861 17.9613C125.557 16.9602 126.592 16.4596 127.969 16.4596ZM142.747 16.7516H145.437V27.1797H142.747V25.9492C141.94 26.9642 140.807 27.4717 139.347 27.4717C137.957 27.4717 136.761 26.9433 135.76 25.8866C134.773 24.816 134.279 23.509 134.279 21.9656C134.279 20.4223 134.773 19.1223 135.76 18.0655C136.761 16.9949 137.957 16.4596 139.347 16.4596C140.807 16.4596 141.94 16.9671 142.747 17.9821V16.7516ZM137.783 24.093C138.325 24.6352 139.014 24.9064 139.848 24.9064C140.682 24.9064 141.37 24.6352 141.913 24.093C142.469 23.5368 142.747 22.8277 142.747 21.9656C142.747 21.1036 142.469 20.4014 141.913 19.8592C141.37 19.303 140.682 19.0249 139.848 19.0249C139.014 19.0249 138.325 19.303 137.783 19.8592C137.241 20.4014 136.97 21.1036 136.97 21.9656C136.97 22.8277 137.241 23.5368 137.783 24.093ZM154.301 16.4596C155.441 16.4596 156.379 16.842 157.116 17.6067C157.867 18.3714 158.243 19.4281 158.243 20.7768V27.1797H155.552V21.1105C155.552 20.4153 155.364 19.887 154.989 19.5255C154.614 19.1501 154.113 18.9624 153.487 18.9624C152.792 18.9624 152.236 19.1779 151.819 19.6089C151.402 20.0399 151.193 20.6865 151.193 21.5485V27.1797H148.503V16.7516H151.193V17.9195C151.847 16.9463 152.883 16.4596 154.301 16.4596ZM168.215 27.4717C166.018 27.4717 164.204 26.7417 162.771 25.2818C161.339 23.8218 160.623 22.0213 160.623 19.88C160.623 17.7249 161.339 15.9243 162.771 14.4783C164.204 13.0184 166.018 12.2884 168.215 12.2884C169.536 12.2884 170.752 12.6012 171.865 13.2269C172.991 13.8387 173.867 14.6729 174.493 15.7297L172.011 17.1687C171.649 16.5152 171.135 16.0077 170.467 15.6462C169.8 15.2708 169.049 15.0831 168.215 15.0831C166.797 15.0831 165.65 15.528 164.774 16.4179C163.912 17.3078 163.481 18.4618 163.481 19.88C163.481 21.2843 163.912 22.4314 164.774 23.3213C165.65 24.2112 166.797 24.6561 168.215 24.6561C169.049 24.6561 169.8 24.4753 170.467 24.1138C171.149 23.7384 171.663 23.2309 172.011 22.5913L174.493 24.0304C173.867 25.0871 172.998 25.9283 171.886 26.554C170.773 27.1658 169.55 27.4717 168.215 27.4717ZM176.924 27.1797V11.9547H179.615V27.1797H176.924ZM189.585 16.7516H192.276V27.1797H189.585V26.0117C188.932 26.985 187.896 27.4717 186.478 27.4717C185.338 27.4717 184.392 27.0893 183.641 26.3246C182.904 25.5599 182.536 24.5031 182.536 23.1544V16.7516H185.226V22.8207C185.226 23.516 185.414 24.0513 185.789 24.4267C186.165 24.7882 186.665 24.9689 187.291 24.9689C187.986 24.9689 188.542 24.7534 188.96 24.3224C189.377 23.8914 189.585 23.2448 189.585 22.3828V16.7516ZM201.435 16.4596C202.839 16.4596 204.035 16.9949 205.022 18.0655C206.023 19.1223 206.524 20.4223 206.524 21.9656C206.524 23.509 206.023 24.816 205.022 25.8866C204.035 26.9433 202.839 27.4717 201.435 27.4717C199.975 27.4717 198.849 26.9642 198.056 25.9492V27.1797H195.366V12.5804H198.056V17.9821C198.849 16.9671 199.975 16.4596 201.435 16.4596ZM198.869 24.093C199.412 24.6352 200.1 24.9064 200.934 24.9064C201.768 24.9064 202.457 24.6352 202.999 24.093C203.555 23.5368 203.833 22.8277 203.833 21.9656C203.833 21.1036 203.555 20.4014 202.999 19.8592C202.457 19.303 201.768 19.0249 200.934 19.0249C200.1 19.0249 199.412 19.303 198.869 19.8592C198.327 20.4014 198.056 21.1036 198.056 21.9656C198.056 22.8277 198.327 23.5368 198.869 24.093Z" fill="black"/>
<rect width="40.1914" height="40.1914" rx="5.02392" fill="#D92B7C"/>
<path fill-rule="evenodd" clip-rule="evenodd" d="M9.85758 24.3306C11.5669 27.3527 13.6339 31.0073 19.0486 30.768C23.7939 30.5583 26.999 26.6842 29.668 23.458C31.5182 21.2216 33.1107 19.2967 34.7801 19.1196C32.0686 16.9096 29.425 17.113 25.2967 19.8416C24.4959 20.2784 23.5112 20.1026 23.1994 19.2321C22.7501 17.9781 22.3799 17.0333 22.05 16.1918C21.3667 14.4481 20.857 13.1477 20.1789 10.4587C20.1737 10.4381 20.1686 10.4178 20.1635 10.3978C19.9925 9.7201 19.8984 9.34754 19.9185 8.61737C18.3042 9.55197 17.7934 11.0038 18.5674 13.2492C16.755 11.4562 15.9136 10.2746 14.5407 8.03809C13.1195 9.45609 13.2907 10.7512 15.2201 13.9C11.7667 11.5336 10.5943 10.4224 9.26337 8.65526C8.19643 10.0562 8.08316 11.7014 10.3957 13.6593C11.8702 14.9075 13.0019 15.5515 14.4097 16.3527C14.7659 16.5554 15.1397 16.7681 15.5413 17.0032C14.1917 17.0141 12.8013 17.1016 11.5163 17.1825C9.64688 17.3001 8.00063 17.4037 7.02808 17.237C7.78982 19.0849 8.55599 19.535 10.2643 19.7476H16.1626C16.5685 19.7619 16.9 19.8365 17.169 19.9579C17.5066 20.0894 17.8213 20.2863 18.0959 20.542C18.6572 20.0253 19.3838 19.7521 20.1291 19.7774C20.8743 19.8027 21.5827 20.1247 22.1113 20.6783C22.6557 21.2624 22.963 22.0464 22.9684 22.8647C22.9737 23.683 22.6766 24.4714 22.1399 25.0633L18.242 29.1669C18.2053 29.2056 18.1554 29.2273 18.1035 29.2273C18.0516 29.2273 18.0018 29.2056 17.965 29.1669C14.7213 25.7449 14.1584 25.1691 14.0529 25.0445C13.5543 24.5424 13.1924 24.1127 12.7917 23.6371C12.3836 23.1525 11.9354 22.6203 11.2615 21.9153C9.89809 20.489 8.82355 20.4574 7.28889 20.9008C8.28717 21.5542 9.0305 22.8684 9.85758 24.3306Z" fill="white"/>
<path d="M22.1113 20.6784C21.5827 20.1248 20.8743 19.8028 20.1291 19.7775C19.3838 19.7522 18.6572 20.0255 18.0959 20.5421C17.5283 20.0135 16.7888 19.7362 16.0316 19.7681C15.2745 19.8 14.5583 20.1386 14.0327 20.7132C13.5071 21.2879 13.2127 22.0541 13.2109 22.8518C13.2092 23.6495 13.5003 24.4171 14.0234 24.9943C14.0516 25.0679 13.8276 24.8021 17.965 29.167C18.0017 29.2057 18.0516 29.2274 18.1035 29.2274C18.1554 29.2274 18.2053 29.2057 18.242 29.167L22.1399 25.0634C22.6766 24.4715 22.9737 23.6831 22.9683 22.8648C22.963 22.0465 22.6557 21.2625 22.1113 20.6784Z" fill="#FF93C5"/>
</svg>
