<svg width="35" height="55" viewBox="0 0 35 55" fill="none" xmlns="http://www.w3.org/2000/svg">
<g clip-path="url(#clip0_1_78)">
<path d="M11.1901 14.9993C8.0273 14.164 4.4146 13.1616 2.70235 10.057C1.96788 8.72513 1.69245 7.15195 2.22494 5.69943C2.68399 4.43253 3.73062 3.51368 4.87824 2.8872C6.09012 2.22359 7.4489 1.86626 8.79391 1.6203C10.5658 1.29546 12.3653 1.12375 14.1648 1.11447C17.7591 1.10055 21.3626 1.69455 24.7504 2.90576C27.5506 3.90814 30.6033 5.3421 32.2099 8.00583C32.9949 9.30521 33.2428 10.8645 32.9031 12.3495C32.5404 13.9273 31.6132 15.2963 30.5987 16.5214C29.4373 17.9275 28.1106 19.2037 26.8437 20.5124L22.6801 24.8142C20.4078 27.1624 18.0621 29.5941 16.7446 32.6523C15.5006 35.548 15.6521 38.8104 17.4745 41.4231C19.3566 44.1193 22.7168 45.3723 25.9072 44.9036C26.7427 44.7829 27.5552 44.5463 28.331 44.2214C28.588 44.1147 29.0746 43.8038 28.8222 43.4743C28.5697 43.1448 27.8857 43.3443 27.6011 43.4557C24.5209 44.6623 21.0505 43.2562 19.2281 40.5831C17.4056 37.9101 17.5984 34.2904 19.173 31.4179C20.8898 28.2854 23.589 25.8027 26.0403 23.2735C27.4542 21.8117 28.8681 20.3499 30.2819 18.8881C31.4846 17.6444 32.6965 16.3729 33.6192 14.8972C34.4776 13.5282 35.0514 12.0014 34.9963 10.3633C34.9459 8.86435 34.294 7.46751 33.3484 6.33056C31.2872 3.85245 28.1106 2.53451 25.136 1.57854C21.5876 0.427657 17.828 -0.0967359 14.1005 0.0146395C10.7495 0.112093 7.13675 0.534392 4.10704 2.07973C1.45833 3.42551 -0.644105 5.95002 0.182181 9.1103C1.08191 12.5629 4.35951 14.3403 7.48104 15.338C8.3165 15.6072 9.16574 15.83 10.015 16.0527C10.4419 16.1641 11.0616 15.9924 11.3738 15.6861C11.6721 15.3937 11.5895 15.106 11.1901 14.9993Z" fill="white"/>
<path d="M21.7428 51.7697C21.3021 52.8486 21.9772 53.9547 22.915 54.5415C24.1246 55.2999 25.7704 55.0336 26.9472 54.3519C27.4911 54.0359 27.9694 53.6025 28.3304 53.0969C28.5039 52.8532 28.6492 52.5913 28.7711 52.3205C28.893 52.0496 29.104 51.6523 28.9399 51.377C28.6633 50.9165 27.9928 50.5554 27.4958 50.3657C26.8675 50.122 26.1877 50.0046 25.5078 50.0001C23.6792 49.9911 21.935 50.7179 20.3549 51.5395C20.1111 51.6659 19.8298 51.9909 20.1299 52.2031C20.43 52.4153 20.9926 52.3159 21.3114 52.1805C22.3945 51.7201 23.5198 51.1242 24.6076 51.0745C25.4937 51.0339 26.4971 51.3724 27.1207 52.1173L27.0504 51.8645C26.9003 52.4469 26.619 53.0157 26.1689 53.4445C26.0845 53.5258 25.9392 53.6477 25.8782 53.6928C25.8923 53.6838 25.7516 53.7696 25.7235 53.7876L25.6391 53.8373C25.7 53.8102 25.7047 53.8057 25.6391 53.8373C25.5734 53.8644 25.4328 53.9185 25.5781 53.8689C25.5547 53.8779 25.3062 53.9321 25.4281 53.9095C25.5406 53.8869 25.264 53.9231 25.2687 53.9231C25.4093 53.9185 25.189 53.905 25.2499 53.9185C24.7717 53.8147 24.2887 53.5303 23.9512 53.0879C23.6136 52.6455 23.5104 52.0631 23.7308 51.535C23.8996 51.1287 23.0884 51.1016 22.8728 51.1242C22.4508 51.1738 21.9116 51.3634 21.7428 51.7742V51.7697Z" fill="white"/>
</g>
<defs>
<clipPath id="clip0_1_78">
<rect width="35" height="55" fill="white"/>
</clipPath>
</defs>
</svg>
