<svg width="34" height="34" viewBox="0 0 34 34" fill="none" xmlns="http://www.w3.org/2000/svg">
<path d="M17 0C7.62686 0 0 7.62686 0 17C0 26.3731 7.62686 34 17 34C26.3731 34 34 26.3731 34 17C34 7.62686 26.3731 0 17 0ZM17 26.9174C16.2182 26.9174 15.5826 26.2839 15.5826 25.5C15.5826 24.7182 16.2161 24.0826 17 24.0826C17.7818 24.0826 18.4174 24.7161 18.4174 25.5C18.4174 26.2818 17.7818 26.9174 17 26.9174ZM18.4174 19.8326C18.4174 20.6165 17.7818 21.25 17 21.25C16.2182 21.25 15.5826 20.6145 15.5826 19.8326V8.5C15.5826 7.71817 16.2182 7.08264 17 7.08264C17.7818 7.08264 18.4174 7.71817 18.4174 8.5V19.8326Z" fill="#EF358B"/>
<path d="M17.0033 26.9207C16.2215 26.9207 15.5859 26.2872 15.5859 25.5033C15.5859 24.7215 16.2194 24.0859 17.0033 24.0859C17.7851 24.0859 18.4207 24.7194 18.4207 25.5033C18.4207 26.2851 17.7851 26.9207 17.0033 26.9207ZM18.4207 19.8359C18.4207 20.6198 17.7851 21.2533 17.0033 21.2533C16.2215 21.2533 15.5859 20.6178 15.5859 19.8359V8.5033C15.5859 7.72147 16.2215 7.08594 17.0033 7.08594C17.7851 7.08594 18.4207 7.72147 18.4207 8.5033V19.8359Z" fill="white"/>
</svg>
