<svg width="96" height="56" viewBox="0 0 96 56" fill="none" xmlns="http://www.w3.org/2000/svg">
<g clip-path="url(#clip0_1_76)">
<path fill-rule="evenodd" clip-rule="evenodd" d="M90.6266 12.842C89.103 12.2857 87.7149 12.1987 86.9221 11.0039C87.1423 10.147 87.6654 10.0568 88.2733 10.471C89.7232 11.4758 91.2318 11.4873 92.8814 11.0715C94.2869 10.7263 94.4241 10.8494 95.1403 12.4121C94.1521 14.0606 93.1507 15.7333 92.1492 17.4059C91.7513 18.0702 91.3534 18.7344 90.1748 18.6682C90.9614 16.9559 91.6813 15.3647 92.5292 13.5126C90.7215 14.0147 89.0557 14.3742 87.4629 14.9159C81.8694 16.8174 76.2813 18.7377 70.7391 20.7465C63.7409 23.2778 56.7566 25.9271 49.7802 28.5335C48.2733 29.091 46.7719 29.6674 45.2542 30.1875C44.4766 30.4529 44.1291 30.9398 43.9194 31.6921C43.2605 33.9166 42.5587 36.1333 41.7897 38.3287C40.4514 42.2143 39.0648 46.0731 37.7266 49.9587C37.2078 51.4715 36.8046 53.0323 36.31 54.5585C36.169 54.9857 35.9054 55.6924 35.7202 55.685C35.245 55.6596 34.6484 55.4252 34.36 55.061C33.142 53.5213 31.9749 51.9466 30.8587 50.3368C28.0925 46.3967 25.4227 42.3678 21.7355 39.1821C21.3533 38.8451 21.0754 38.3762 20.5743 37.7684C19.0704 38.4065 17.4964 38.9428 16.0492 39.7069C11.6381 42.0397 7.25409 44.4663 2.85382 46.8366C2.25352 47.1525 1.58853 47.3854 0.953177 47.6504C0.8643 47.554 0.775424 47.4577 0.681122 47.3425C0.865485 47.0655 0.968894 46.6491 1.23421 46.5114C6.87968 43.1709 12.5765 39.9377 18.6242 37.3557C19.222 37.1015 19.852 36.8177 20.4907 36.7755C21.0301 36.7416 21.774 36.8521 22.1187 37.2C23.2198 38.2649 24.1924 39.4484 25.2026 40.621C28.1982 44.0879 30.9126 47.7785 33.3216 51.6794C33.6291 52.1804 34.0251 52.6355 34.4023 53.096C34.5021 53.2299 34.6848 53.2992 34.8651 53.4301C38.0239 46.2723 40.4305 38.9046 42.6185 31.1323C41.9614 31.3223 41.5484 31.4416 41.1166 31.5664C37.6248 32.5757 34.1823 33.8962 30.6141 34.5004C25.3584 35.3889 20.2559 34.6261 16.7338 30.1113C15.1869 28.1378 14.2479 25.6631 13.167 23.3311C11.7782 20.3558 11.5937 17.1138 11.3772 13.9014C11.3546 13.5418 11.3696 13.1713 11.4571 12.8409C12.3574 9.69217 13.0562 6.47964 14.2252 3.416C15.3996 0.37113 19.9128 -0.201056 22.2206 2.22379C23.7449 3.83772 24.8111 5.76712 25.7058 7.80709C27.5817 12.0451 28.5269 16.5115 29.2897 21.0509C29.3361 21.2816 29.4012 21.5069 29.5264 22.081C29.7846 21.3554 29.9551 20.9603 30.0907 20.5143C32.4001 12.951 36.4552 6.57152 42.7563 1.69903C43.0374 1.47537 43.3186 1.25173 43.6106 1.06562C46.6592 -0.913985 50.2073 0.664199 50.4385 4.27918C50.5769 6.51743 50.4525 8.83164 49.9868 11.0207C49.1662 14.7973 48.0207 18.5051 46.9557 22.21C46.3369 24.362 45.5946 26.509 44.8289 28.9272C46.3529 28.7104 47.5298 28.2075 48.7229 27.761C56.8391 24.8048 64.9335 21.7736 73.0847 18.8683C78.6378 16.8972 84.2639 15.1083 89.8628 13.2255C90.0209 13.1391 90.179 13.0528 90.6266 12.842ZM36.0682 31.7645C37.9642 31.2164 39.8361 30.655 41.7431 30.1445C42.7623 29.8703 43.2974 29.3291 43.619 28.2598C44.4851 25.3447 45.5339 22.4989 46.4672 19.6051C47.8659 15.2952 49.0443 10.927 49.2289 6.35783C49.2609 5.41287 49.282 4.43036 49.0403 3.52382C48.5077 1.39952 46.5025 0.514515 44.5756 1.51898C43.7985 1.92669 43.0647 2.48458 42.4035 3.08251C39.0171 6.07512 36.2603 9.55703 34.1628 13.5603C32.26 17.1819 31.072 21.024 30.2252 24.9913C30.101 25.6171 29.9229 26.1974 29.139 26.1595C28.3738 26.1163 28.4472 25.5255 28.3703 24.9781C28.0329 22.6144 27.7572 20.2531 27.2884 17.9272C26.6175 14.48 25.8794 11.0115 24.2565 7.85985C23.4031 6.17407 22.4637 4.47245 21.2541 3.03204C19.484 0.919593 16.6455 1.3739 15.3725 3.79633C15.071 4.37168 14.842 4.98708 14.6373 5.61583C14.2653 6.86247 14.0089 8.15707 13.5752 9.40121C12.4897 12.5424 12.6336 15.7148 13.191 18.91C13.7593 22.1428 15.2336 24.9917 16.8152 27.7892C17.6114 29.2067 18.7485 30.6071 20.0853 31.5022C23.2834 33.629 26.9435 34.1171 30.699 33.3164C32.5472 32.8839 34.3035 32.2745 36.0682 31.7645Z" fill="white"/>
</g>
<defs>
<clipPath id="clip0_1_76">
<rect width="96" height="56" fill="white"/>
</clipPath>
</defs>
</svg>
