<svg width="117" height="71" viewBox="0 0 117 71" fill="none" xmlns="http://www.w3.org/2000/svg">
<path d="M106.782 68.804C99.105 65.129 61.8021 47.08 57.4553 62.2953C55.3734 69.5826 63.9106 70.621 68.8703 69.5709C78.6332 67.504 86.1857 64.9943 94.3653 58.7889C106.991 49.2104 122.663 32.407 112.863 15.8984C108.634 8.77367 96.663 8.71906 90.1222 11.1859C83.7094 13.6044 78.7482 17.642 73.3023 21.6584C68.876 24.9228 69.8647 24.7456 68.7216 19.3461C65.8526 5.79378 48.3819 -8.14187 39.7059 9.27248C34.8381 19.0431 35.6756 28.9727 36.1276 39.3633C36.2974 43.2662 36.3693 49.9872 38.1016 53.5322C39.9877 57.3919 42.8832 52.9235 42.6674 50.0414C42.1309 42.8758 39.7042 39.1584 32.7399 37.1688C26.4415 35.3694 7.57591 30.1173 5.13086 37.1688C3.63086 41.1688 4.63086 35.6475 4.63086 32.6475C4.63086 29.1475 9.36065 25.0929 8.63086 27.6475C8.37374 28.5475 -0.0996437 37.8801 0.630861 38.6475C3.23148 41.3793 11.5985 38.0728 14.6309 40.1475" stroke="#EF358B" stroke-linecap="round"/>
</svg>
