<svg width="158" height="158" viewBox="0 0 158 158" fill="none" xmlns="http://www.w3.org/2000/svg">
<path d="M66.5288 157.999C29.786 157.999 6.10352e-05 128.205 6.10352e-05 91.4528C6.10352e-05 54.7001 29.786 24.9062 66.5288 24.9062C103.272 24.9062 133.058 54.7001 133.058 91.4528C133.058 128.205 103.272 157.999 66.5288 157.999Z" fill="#FFDCEC"/>
<path d="M90.4712 134.093C53.7284 134.093 23.9424 104.299 23.9424 67.5466C23.9424 30.794 53.7284 1 90.4712 1C127.214 1 157 30.794 157 67.5466C157 104.299 127.214 134.093 90.4712 134.093Z" stroke="#EF358B" stroke-width="0.897143" stroke-linecap="round" stroke-linejoin="round"/>
<path d="M46.685 128.186C41.0638 128.186 36.5069 123.604 36.5069 117.952C36.5069 112.3 41.0638 107.719 46.685 107.719C52.3063 107.719 56.8633 112.3 56.8633 117.952C56.8633 123.604 52.3063 128.186 46.685 128.186Z" fill="#EF358B"/>
</svg>
